# xmcd CD database file
#
# Track frame offsets:
#	150
#	14241
#	33680
#	45512
#	62966
#	79351
#	91826
#	109076
#	127953
#	140516
#	159050
#	178142
#
# Disc length: 2658 seconds
#
# Revision: 0
# Processed by: cddbd v1.5PL3 Copyright (c) Steve Scherf et al.
# Submitted via: CDex 1.50
#
DISCID=a10a600c
DTITLE=Raoul And The Big Time - Cold Outside
DYEAR=2004
DGENRE=Blues
TTITLE0=Can't Help It
TTITLE1=Otherside of Town
TTITLE2=Kiss Every Dollar Goodbye
TTITLE3=Baby Don't Stop
TTITLE4=Easy
TTITLE5=Call Me Crazy
TTITLE6=Come Back w/Junior Watson
TTITLE7=Living in Paradise
TTITLE8=Loving Machine w/Big Joe Maher
TTITLE9=Cold Outside
TTITLE10=The Mercy Song
TTITLE11=You Got It All w/Mark Hummel
EXTD=YEAR: 2004
EXTT0=
EXTT1=
EXTT2=
EXTT3=
EXTT4=
EXTT5=
EXTT6=
EXTT7=
EXTT8=
EXTT9=
EXTT10=
EXTT11=
PLAYORDER=
